<?xml version="1.0" encoding="UTF-8"?>
<svg version="1.1" xmlns="http://www.w3.org/2000/svg" width="1024" height="1024">
<path d="M0 0 C337.92 0 675.84 0 1024 0 C1024 337.92 1024 675.84 1024 1024 C686.08 1024 348.16 1024 0 1024 C0 686.08 0 348.16 0 0 Z " fill="#F2F2F2" transform="translate(0,0)"/>
<path d="M0 0 C1.08873413 -0.01073296 1.08873413 -0.01073296 2.19946289 -0.02168274 C4.58862044 -0.03853435 6.97589219 -0.01919252 9.36499023 0.00219727 C11.02978165 0.00136832 12.69457298 -0.00109204 14.35935974 -0.00511169 C17.84382847 -0.00796712 21.32765347 0.00670746 24.81201172 0.03417969 C29.27679305 0.06828919 33.74042559 0.0622334 38.20526218 0.04351711 C41.64114448 0.03294641 45.07675966 0.04188501 48.51261711 0.05690193 C50.15883529 0.06208194 51.80508138 0.06160412 53.45129585 0.05535698 C55.75199469 0.04990258 58.05105091 0.07028292 60.3515625 0.09765625 C61.65996597 0.10385483 62.96836945 0.11005341 64.31642151 0.11643982 C67.61108398 0.63110352 67.61108398 0.63110352 70.03167725 2.32150269 C71.96047604 5.14202712 72.12044755 6.71803928 72.14111328 10.11816406 C72.16584969 11.76458138 72.16584969 11.76458138 72.19108582 13.44425964 C72.18822319 15.21317314 72.18822319 15.21317314 72.18530273 17.01782227 C72.19946732 18.23057327 72.2136319 19.44332428 72.22822571 20.69282532 C72.27019194 24.56817488 72.28538308 28.44305845 72.29858398 32.31860352 C72.32758607 36.20464391 72.3620614 40.09056439 72.40107727 43.97651672 C72.42366241 46.39588512 72.43942189 48.81532811 72.44792175 51.23478699 C72.45847343 52.86701958 72.45847343 52.86701958 72.46923828 54.53222656 C72.47271774 55.49501022 72.4761972 56.45779388 72.4797821 57.44975281 C72.36770602 59.60884 72.36770602 59.60884 73.61108398 60.63110352 C75.27765615 60.73319617 76.9484791 60.76680161 78.61816406 60.77294922 C79.68629837 60.77998367 80.75443268 60.78701813 81.85493469 60.79426575 C83.60014656 60.80051216 83.60014656 60.80051216 85.38061523 60.80688477 C87.82007699 60.83008306 90.25953014 60.8542004 92.69897461 60.87915039 C96.56369773 60.91429541 100.42810516 60.94361921 104.29296875 60.95703125 C108.01007782 60.97247268 111.72625193 61.01266353 115.44311523 61.05688477 C116.60051712 61.05497635 117.75791901 61.05306793 118.95039368 61.05110168 C120.02798447 61.06759262 121.10557526 61.08408356 122.21582031 61.10107422 C123.16322586 61.10694046 124.11063141 61.1128067 125.08674622 61.11885071 C128.49291477 61.81004957 129.61985413 62.78937607 131.61108398 65.63110352 C132.12574768 68.92576599 132.12574768 68.92576599 132.14453125 72.890625 C132.15314682 73.61469543 132.16176239 74.33876587 132.17063904 75.08477783 C132.19331056 77.47428306 132.18655834 79.8626165 132.17749023 82.25219727 C132.18272565 83.91602426 132.18900183 85.57984827 132.1962738 87.2436676 C132.20668038 90.72980724 132.20211358 94.21553877 132.1875 97.70166016 C132.17031862 102.16536341 132.19379691 106.62777866 132.2289896 111.09133816 C132.25097034 114.52725222 132.24952047 117.96285846 132.24122429 121.39882088 C132.24040499 123.04423497 132.24726438 124.68967171 132.26199532 126.33502007 C132.27945354 128.6382096 132.26489189 130.93909009 132.2421875 133.2421875 C132.24122574 134.55138657 132.24026398 135.86058563 132.23927307 137.2094574 C131.44140039 141.55534309 130.14007428 143.02831517 126.61108398 145.63110352 C123.92179871 146.2323761 123.92179871 146.2323761 120.99462891 146.19873047 C119.34348335 146.19816399 119.34348335 146.19816399 117.65898132 146.19758606 C116.48172989 146.17177963 115.30447845 146.14597321 114.09155273 146.11938477 C112.877845 146.11231003 111.66413727 146.10523529 110.41365051 146.09794617 C106.54133187 146.06998241 102.67046482 146.00723443 98.79858398 145.94360352 C96.17165176 145.91852347 93.54469684 145.8957098 90.91772461 145.87524414 C84.48168338 145.82014882 78.04648739 145.73650007 71.61108398 145.63110352 C71.61996643 146.29429596 71.62884888 146.9574884 71.63800049 147.64077759 C71.72658354 154.55136485 71.78686414 161.46179047 71.83081055 168.37280273 C71.85090961 170.95099439 71.8781934 173.52914056 71.9128418 176.10717773 C71.96143245 179.81578812 71.98407056 183.52379507 72.00170898 187.23266602 C72.02235413 188.38288239 72.04299927 189.53309875 72.06427002 190.71817017 C72.06601817 196.97114169 71.92675229 200.93121835 67.61108398 205.63110352 C64.69525489 207.08901807 62.11068336 206.79072286 58.85400391 206.82397461 C58.15948624 206.8321521 57.46496857 206.84032959 56.74940491 206.84875488 C54.4467963 206.8736042 52.14424933 206.89012379 49.84155273 206.90454102 C49.05528315 206.90986469 48.26901356 206.91518837 47.45891762 206.92067337 C43.29700317 206.94740327 39.1351187 206.96677842 34.97314453 206.98120117 C30.67541709 206.99784683 26.37845682 207.04262337 22.0810194 207.09357262 C18.77556992 207.12723784 15.47030268 207.13877772 12.16469765 207.14442825 C10.5806422 207.15114307 8.99659884 207.16637137 7.41271019 207.19031906 C5.19328792 207.22196037 2.9759365 207.22201043 0.75634766 207.21459961 C-0.50558914 207.22268646 -1.76752594 207.23077332 -3.06770325 207.23910522 C-7.25651558 206.47227538 -8.69896382 204.84242563 -11.38891602 201.63110352 C-11.71891602 201.30110352 -12.04891602 200.97110352 -12.38891602 200.63110352 C-12.48250791 198.91244943 -12.50636213 197.18994608 -12.50244141 195.46875 C-12.50236588 194.36768417 -12.50229034 193.26661835 -12.50221252 192.13218689 C-12.49705124 190.93429031 -12.49188995 189.73639374 -12.48657227 188.50219727 C-12.48515732 187.28282974 -12.48374237 186.06346222 -12.48228455 184.80714417 C-12.47666569 180.89427282 -12.46410998 176.98145771 -12.45141602 173.06860352 C-12.44640345 170.42342205 -12.44184012 167.77823969 -12.43774414 165.13305664 C-12.42669013 158.63238626 -12.40993365 152.1317489 -12.38891602 145.63110352 C-13.08160583 145.64220657 -13.77429565 145.65330963 -14.48797607 145.66474915 C-21.6901766 145.77527007 -28.89213673 145.85074129 -36.0949707 145.90576172 C-38.78406634 145.92810315 -41.47257396 145.96290944 -44.16137695 146.00830078 C-48.02385345 146.06887467 -51.88542664 146.09729769 -55.74829102 146.11938477 C-57.55472076 146.15809441 -57.55472076 146.15809441 -59.39764404 146.19758606 C-61.07893402 146.19815254 -61.07893402 146.19815254 -62.79418945 146.19873047 C-63.78014099 146.20983353 -64.76609253 146.22093658 -65.78192139 146.2323761 C-68.38891602 145.63110352 -68.38891602 145.63110352 -70.70722961 143.56416321 C-72.75041555 140.00060564 -72.94678503 137.13083407 -72.890625 133.13452148 C-72.89602798 132.39733887 -72.90143097 131.66015625 -72.90699768 130.90063477 C-72.91946171 128.47443977 -72.90301389 126.04943662 -72.88500977 123.62329102 C-72.88516478 121.93368467 -72.88665409 120.24407797 -72.88941956 118.55447388 C-72.89080238 115.01882145 -72.87826261 111.48357527 -72.85546875 107.94799805 C-72.82704069 103.41377299 -72.82983465 98.88022054 -72.84255886 94.34594536 C-72.84950848 90.85953004 -72.84173575 87.37327057 -72.82930183 83.88687515 C-72.8247834 82.21470868 -72.82445396 80.54252551 -72.82836723 78.87035751 C-72.8312736 76.53618705 -72.81480284 74.20294916 -72.79296875 71.86889648 C-72.7974704 71.17688141 -72.80197205 70.48486633 -72.80661011 69.7718811 C-72.76414235 67.04332202 -72.65184302 65.05913503 -71.20623779 62.70576477 C-68.69439004 61.22040016 -66.82158169 61.23147055 -63.90771484 61.19873047 C-62.78677933 61.17893631 -61.66584381 61.15914215 -60.51094055 61.13874817 C-58.69676888 61.12916328 -58.69676888 61.12916328 -56.84594727 61.11938477 C-55.60721359 61.10143356 -54.36847992 61.08348236 -53.09220886 61.06498718 C-49.80262142 61.01995275 -46.51323143 60.98767702 -43.22344971 60.96154785 C-39.86505585 60.93174412 -36.50689839 60.88521328 -33.14868164 60.84008789 C-26.56220205 60.75499032 -19.97570703 60.68670738 -13.38891602 60.63110352 C-13.387491 59.95316238 -13.38606598 59.27522125 -13.38459778 58.57673645 C-13.36490956 51.51982172 -13.31065386 44.46377297 -13.23632812 37.40722656 C-13.21313279 34.77382622 -13.19874886 32.14033291 -13.19335938 29.50683594 C-13.18408173 25.72084509 -13.14311225 21.93631977 -13.09594727 18.15063477 C-13.09987991 16.97338333 -13.10381256 15.7961319 -13.10786438 14.58320618 C-13.07839973 12.93206062 -13.07839973 12.93206062 -13.04833984 11.24755859 C-13.04167801 10.28159256 -13.03501617 9.31562653 -13.02815247 8.32038879 C-11.35818355 1.29478375 -6.56010838 0.00481918 0 0 Z " fill="#3786D8" transform="translate(269.388916015625,394.368896484375)"/>
<path d="M0 0 C6.6 0 13.2 0 20 0 C21.670625 3.6196875 21.670625 3.6196875 23.375 7.3125 C29.68961444 20.83262592 36.83970734 33.9141592 44 47 C44.34144043 46.31188232 44.68288086 45.62376465 45.03466797 44.91479492 C52.18684989 30.51578746 59.4506314 16.19539396 67 2 C67.33 1.34 67.66 0.68 68 0 C74.93 0 81.86 0 89 0 C89 30.03 89 60.06 89 91 C83.06 91 77.12 91 71 91 C70.67 72.19 70.34 53.38 70 34 C66.04 41.92 62.08 49.84 58 58 C55.03515088 63.36496507 52.08250065 68.70681706 49 74 C45.7 74 42.4 74 39 74 C36.95441013 70.05353179 34.90977634 66.10657008 32.8659668 62.15917969 C32.17285987 60.82083277 31.47950726 59.48261306 30.78588867 58.14453125 C29.12615456 54.9425027 27.4691206 51.73914291 25.81884766 48.53222656 C24.6838229 46.32799325 23.54373117 44.12635283 22.39599609 41.92871094 C21.93918457 41.0421582 21.48237305 40.15560547 21.01171875 39.2421875 C20.61815186 38.48534668 20.22458496 37.72850586 19.8190918 36.94873047 C19 35 19 35 19 32 C18.34 32 17.68 32 17 32 C17 51.14 17 70.28 17 90 C11.39 90 5.78 90 0 90 C0 60.3 0 30.6 0 0 Z " fill="#184981" transform="translate(453,406)"/>
<path d="M0 0 C5.94 0 11.88 0 18 0 C18 30.36 18 60.72 18 92 C12.72 92 7.44 92 2 92 C1.505 88.04 1.505 88.04 1 84 C0.34 84 -0.32 84 -1 84 C-1.24878906 84.61488281 -1.49757813 85.22976563 -1.75390625 85.86328125 C-3.22430611 88.38462521 -4.31376453 88.99045123 -6.9375 90.1875 C-7.62714844 90.51105469 -8.31679688 90.83460938 -9.02734375 91.16796875 C-16.89127132 94.48483325 -25.46660559 93.97188088 -33.375 91 C-41.56658088 87.15276676 -45.82573823 81.37530952 -49.2734375 73.17578125 C-52.02981926 64.92145523 -52.77536975 52.80718855 -49.8125 44.4375 C-48.9153125 42.7359375 -48.9153125 42.7359375 -48 41 C-47.68289063 40.34 -47.36578125 39.68 -47.0390625 39 C-43.37078411 32.13173408 -37.25750244 27.71793958 -30.10546875 24.83203125 C-21.25345786 22.46036041 -12.91881025 23.1525494 -4.98828125 27.7109375 C-3.31710097 28.79441391 -1.6571728 29.89521813 0 31 C0 20.77 0 10.54 0 0 Z " fill="#1B4B83" transform="translate(679,405)"/>
<path d="M0 0 C7.29246466 5.48348118 11.94228656 11.09146686 14.8125 19.8125 C14.8125 24.4325 14.8125 29.0525 14.8125 33.8125 C-1.3575 33.8125 -17.5275 33.8125 -34.1875 33.8125 C-30.95355587 42.55159818 -30.95355587 42.55159818 -24.1875 47.8125 C-19.09345816 48.59769626 -13.77729437 49.09794538 -9.046875 46.75 C-6.92687433 45.02106741 -5.41219854 43.26189708 -4.1875 40.8125 C1.4225 41.8025 7.0325 42.7925 12.8125 43.8125 C10.1043521 51.93694369 6.39805129 56.75870928 -1.25 60.75 C-4.94089489 62.39900551 -8.11915162 63.5683991 -12.1875 63.8125 C-13.06019531 63.874375 -13.93289063 63.93625 -14.83203125 64 C-25.00392643 64.41784422 -32.69285353 62.26494121 -40.5625 55.6875 C-47.58196967 48.94702356 -51.25290731 40.96220546 -51.53027344 31.29931641 C-51.63847593 22.73984322 -51.46973629 15.95741962 -46.1875 8.8125 C-45.5790625 7.97847656 -44.970625 7.14445312 -44.34375 6.28515625 C-33.27923826 -6.40295232 -13.97902094 -9.33329841 0 0 Z " fill="#194A81" transform="translate(604.1875,434.1875)"/>
<path d="M0 0 C1.48573827 0.8934339 2.94820921 1.8276597 4.375 2.8125 C4.95636719 3.18503906 5.53773438 3.55757812 6.13671875 3.94140625 C11.45939843 7.78928804 15.2043227 14.37377484 16.375 20.8125 C17.18938783 30.66525769 16.16056699 39.06393765 10.125 47.125 C3.22644955 53.86676521 -4.1737634 57.07748847 -13.875 57.25 C-23.4058113 57.08197394 -29.35785603 54.47589301 -36 47.6875 C-41.83134695 40.55767499 -44.40950084 32.63924475 -44.00390625 23.44140625 C-42.656745 14.09460705 -36.85072912 7.02405413 -29.5 1.4375 C-20.74694711 -3.50987772 -9.23203444 -4.46847329 0 0 Z " fill="#194A82" transform="translate(572.625,536.1875)"/>
<path d="M0 0 C5.6314908 4.84762029 9.47474335 9.58086303 12 16.625 C12 17.615 12 18.605 12 19.625 C9.24763726 19.78725719 6.50482524 19.9059328 3.75 20 C2.97269531 20.05027344 2.19539062 20.10054687 1.39453125 20.15234375 C-0.87866347 20.21063079 -2.79360721 20.1849322 -5 19.625 C-7.2734375 16.78125 -7.2734375 16.78125 -9 13.625 C-15.15895624 8.66554086 -22.01452948 7.83933014 -29.72265625 8.140625 C-35.97203552 9.06425197 -39.78155861 12.0514122 -43.875 16.6875 C-49.15602753 23.98774394 -49.02153724 31.87262247 -48 40.625 C-45.9738865 47.63629507 -41.18206091 52.00370909 -35 55.625 C-27.4688847 58.13537177 -19.15014728 57.35377825 -12 54.0859375 C-9.72309508 52.58354324 -9.72309508 52.58354324 -7.76953125 49.5 C-4.60105376 46.21086116 -4.60105376 46.21086116 -1.01171875 46.0390625 C0.43086011 46.07858521 1.87287302 46.14965067 3.3125 46.25 C4.42334961 46.29060547 4.42334961 46.29060547 5.55664062 46.33203125 C7.37235998 46.40231716 9.18656801 46.50992911 11 46.625 C9.78630385 53.28909089 7.0596709 58.9949238 2 63.625 C-1.22830676 65.82611825 -4.56294352 67.76954837 -8 69.625 C-8.63808594 69.99109375 -9.27617187 70.3571875 -9.93359375 70.734375 C-19.878876 75.02081045 -33.15741173 73.41983773 -43.05859375 69.9453125 C-53.37851401 65.31299769 -59.34555216 57.4239373 -63.375 47.0625 C-66.75806941 35.91827137 -66.3458991 24.05198587 -61 13.625 C-55.5694444 3.76548984 -48.42781241 -2.1669921 -38 -6.375 C-25.33789192 -9.67634171 -10.56337443 -7.86152124 0 0 Z " fill="#1A4A82" transform="translate(513,520.375)"/>
<path d="M0 0 C7.60920461 4.27848516 13.04378919 10.15003259 16.1953125 18.234375 C17.1953125 22.234375 17.1953125 22.234375 17.1953125 32.234375 C3.3353125 32.234375 -10.5246875 32.234375 -24.8046875 32.234375 C-23.8146875 34.544375 -22.8246875 36.854375 -21.8046875 39.234375 C-21.4746875 40.224375 -21.1446875 41.214375 -20.8046875 42.234375 C-15.92410377 44.67466687 -10.98132464 44.80098887 -5.8046875 43.234375 C-5.0415625 42.368125 -4.2784375 41.501875 -3.4921875 40.609375 C-0.8046875 38.234375 -0.8046875 38.234375 2.0234375 38.05859375 C6.84223781 38.41360199 10.95794678 38.78544181 15.1953125 41.234375 C10.82480631 48.26323032 7.01618091 53.88948636 -1.17578125 56.6875 C-9.97912732 58.51880528 -19.74417577 58.61630359 -27.62109375 53.9140625 C-33.83592163 49.13342567 -39.48650434 43.18186763 -40.8046875 35.234375 C-41.80034157 23.87887726 -40.71853748 15.95350062 -33.6796875 6.984375 C-24.79899466 -2.42313861 -12.07553209 -4.72327085 0 0 Z " fill="#194A81" transform="translate(762.8046875,535.765625)"/>
<path d="M0 0 C1.65 0 3.3 0 5 0 C7.26763348 6.44485306 9.14055187 12.96241822 10.94091797 19.54907227 C12.14073727 23.93150872 13.37330062 28.30124662 14.65625 32.66015625 C14.93170654 33.60149414 15.20716309 34.54283203 15.4909668 35.51269531 C16.02879861 37.34563891 16.57173709 39.17709368 17.12036133 41.00683594 C17.3655249 41.84633789 17.61068848 42.68583984 17.86328125 43.55078125 C18.08282471 44.28981689 18.30236816 45.02885254 18.52856445 45.7902832 C19.05250104 48.24608331 19.080061 50.49609925 19 53 C19.91289795 52.98428955 20.8257959 52.9685791 21.76635742 52.95239258 C25.1676201 52.9011303 28.56846963 52.86358561 31.9699707 52.83520508 C33.43943782 52.82015934 34.90886034 52.79971762 36.37817383 52.77368164 C38.4957177 52.73711045 40.61266565 52.72023199 42.73046875 52.70703125 C44.63928833 52.68346558 44.63928833 52.68346558 46.58666992 52.65942383 C50.25106403 53.02505073 52.15056356 53.69052756 55 56 C55.375 59.125 55.375 59.125 55 62 C54 63 54 63 50.12280273 63.11352539 C48.39305833 63.11336621 46.66330919 63.10766849 44.93359375 63.09765625 C44.02497086 63.0962413 43.11634796 63.09482635 42.18019104 63.09336853 C39.26592779 63.08775193 36.35174019 63.07519665 33.4375 63.0625 C31.46679798 63.05748714 29.49609476 63.05292386 27.52539062 63.04882812 C22.68356441 63.03777711 17.84179505 63.02050138 13 63 C10.53332238 55.80102123 8.57131203 48.59188152 6.8125 41.1875 C6.53986328 40.06923828 6.26722656 38.95097656 5.98632812 37.79882812 C5.60057617 36.18717773 5.60057617 36.18717773 5.20703125 34.54296875 C4.9747583 33.57383545 4.74248535 32.60470215 4.50317383 31.60620117 C4 29 4 29 4 25 C3.34 25 2.68 25 2 25 C1.79246094 25.93972656 1.58492188 26.87945312 1.37109375 27.84765625 C0.48789051 31.84030659 -0.40282959 35.83126585 -1.29345703 39.82226562 C-1.94668625 42.7602171 -2.59489748 45.69924331 -3.2419281 48.63856506 C-3.84038382 51.35135067 -4.44360773 54.06306486 -5.0475769 56.77462769 C-5.34496289 58.11415847 -5.64052945 59.45409472 -5.93411255 60.79446411 C-11.30793102 85.30793102 -11.30793102 85.30793102 -14 88 C-15.99958364 88.04080783 -18.00045254 88.04254356 -20 88 C-21.47145105 84.21329714 -22.92468491 80.41984287 -24.375 76.625 C-24.7875 75.56410156 -25.2 74.50320313 -25.625 73.41015625 C-28.0648211 66.99578787 -29.93044296 60.78399321 -31 54 C-34.02907074 55.51453537 -34.57351392 58.17476839 -35.90234375 61.1875 C-37 63 -37 63 -40 64 C-44.14861136 64.22621311 -48.2973197 64.22821893 -52.45166016 64.24023438 C-54.49292352 64.24996626 -56.53319043 64.28101631 -58.57421875 64.3125 C-59.85941406 64.31765625 -61.14460937 64.3228125 -62.46875 64.328125 C-63.64888672 64.3374707 -64.82902344 64.34681641 -66.04492188 64.35644531 C-69 64 -69 64 -70.88867188 62.63964844 C-72.45726132 60.32535873 -72.35023943 58.73186752 -72 56 C-69.65020398 53.65020398 -69.12184356 53.72997295 -65.9296875 53.62109375 C-65.115 53.58693359 -64.3003125 53.55277344 -63.4609375 53.51757812 C-62.60757813 53.49115234 -61.75421875 53.46472656 -60.875 53.4375 C-58.37979303 53.34644819 -55.88679012 53.24711905 -53.39331055 53.11669922 C-51.84401592 53.04115471 -50.29258864 52.99892944 -48.74145508 52.99658203 C-46.35301232 52.96975813 -46.35301232 52.96975813 -43 52 C-41.20989192 49.55198895 -40.1100186 47.71361936 -38.9375 45 C-37.78694509 42.37311509 -36.65719667 40.40609316 -35 38 C-31.25390625 37.0625 -31.25390625 37.0625 -28 37 C-25.55279964 41.56620476 -23.90824602 46.0634897 -22.4375 51 C-22.02004217 52.3751552 -21.60208104 53.75015773 -21.18359375 55.125 C-20.98620605 55.77726562 -20.78881836 56.42953125 -20.58544922 57.1015625 C-19.76880766 59.74968791 -18.8898038 62.37569385 -18 65 C-16.50121226 62.20810163 -15.5275638 59.59392316 -14.7734375 56.51953125 C-14.55010742 55.6181543 -14.32677734 54.71677734 -14.09667969 53.78808594 C-13.85852539 52.80614258 -13.62037109 51.82419922 -13.375 50.8125 C-13.12137695 49.78543945 -12.86775391 48.75837891 -12.60644531 47.70019531 C-11.19459373 41.96338858 -9.81100816 36.21994345 -8.43826294 30.47367859 C-7.72124528 27.47340413 -7.00124506 24.47384705 -6.28155518 21.47421265 C-5.75570712 19.27388057 -5.23584854 17.07219011 -4.71630859 14.87036133 C-4.38922444 13.50206159 -4.06192334 12.13381369 -3.734375 10.765625 C-3.44788086 9.55680664 -3.16138672 8.34798828 -2.86621094 7.10253906 C-2.1368444 4.49014055 -1.32797995 2.34905545 0 0 Z " fill="#F0F2F3" transform="translate(299,444)"/>
<path d="M0 0 C5.96237573 3.48274877 10.6104746 8.38624009 12.62890625 15.08203125 C12.89528785 18.30975025 12.86163823 21.52106418 12.82421875 24.7578125 C12.82138885 25.68297165 12.81855896 26.6081308 12.81564331 27.56132507 C12.80448017 30.50586067 12.77938262 33.45008813 12.75390625 36.39453125 C12.74387146 38.39517789 12.73474648 40.39582931 12.7265625 42.39648438 C12.70455347 47.29178475 12.67005016 52.18685582 12.62890625 57.08203125 C7.34890625 57.08203125 2.06890625 57.08203125 -3.37109375 57.08203125 C-3.38043945 55.92155273 -3.38978516 54.76107422 -3.39941406 53.56542969 C-3.43931251 49.25628394 -3.50507059 44.94785226 -3.57861328 40.63916016 C-3.60682381 38.77499572 -3.62803796 36.91071165 -3.64208984 35.04638672 C-3.66351859 32.36493684 -3.71016673 29.68492539 -3.76171875 27.00390625 C-3.76294739 26.171474 -3.76417603 25.33904175 -3.76544189 24.48138428 C-3.88568175 19.67243332 -3.88568175 19.67243332 -6.2590332 15.55981445 C-9.51588478 13.28103482 -12.09111728 13.47463905 -15.95703125 13.6171875 C-19.61022295 14.3206338 -21.2131044 16.15830375 -23.37109375 19.08203125 C-24.95340183 22.2466474 -24.61267188 25.67282492 -24.6875 29.15234375 C-24.7082811 29.94857147 -24.72906219 30.74479919 -24.75047302 31.56515503 C-24.81593524 34.1123581 -24.8748379 36.6596655 -24.93359375 39.20703125 C-24.97678215 40.93230252 -25.02039654 42.65756318 -25.06445312 44.3828125 C-25.1724162 48.61577997 -25.27151382 52.84882496 -25.37109375 57.08203125 C-30.65109375 57.08203125 -35.93109375 57.08203125 -41.37109375 57.08203125 C-41.37109375 38.27203125 -41.37109375 19.46203125 -41.37109375 0.08203125 C-36.09109375 0.08203125 -30.81109375 0.08203125 -25.37109375 0.08203125 C-25.37109375 2.06203125 -25.37109375 4.04203125 -25.37109375 6.08203125 C-24.71109375 6.08203125 -24.05109375 6.08203125 -23.37109375 6.08203125 C-23.04109375 5.09203125 -22.71109375 4.10203125 -22.37109375 3.08203125 C-15.5860567 -1.3986536 -7.81716584 -3.02641511 0 0 Z " fill="#1B4B82" transform="translate(638.37109375,534.91796875)"/>
<path d="M0 0 C5.42818691 3.34042272 9.7219456 8.10848895 12.25 14 C12.49050903 16.11346436 12.49050903 16.11346436 12.47705078 18.40136719 C12.47689972 19.2619574 12.47674866 20.12254761 12.47659302 21.00921631 C12.46627045 21.92914368 12.45594788 22.84907104 12.4453125 23.796875 C12.4424826 24.74564514 12.43965271 25.69441528 12.43673706 26.67193604 C12.42555448 29.69808639 12.4004533 32.7239393 12.375 35.75 C12.36496772 37.80338114 12.3558423 39.85676692 12.34765625 41.91015625 C12.32562141 46.94021854 12.29110462 51.97005886 12.25 57 C7.3 57 2.35 57 -2.75 57 C-2.76458252 55.90534424 -2.77916504 54.81068848 -2.79418945 53.68286133 C-2.85228739 49.61043095 -2.92951927 45.53854685 -3.01245117 41.46655273 C-3.04564654 39.70622645 -3.07369524 37.94579512 -3.09643555 36.18530273 C-3.1300812 33.65042475 -3.1824006 31.11650477 -3.23828125 28.58203125 C-3.24467117 27.79850784 -3.2510611 27.01498444 -3.25764465 26.2077179 C-3.37926824 21.65845119 -3.9097268 18.61247928 -6.75 15 C-10.46453232 13.14273384 -14.70579425 13.41498911 -18.75 14 C-21.57424288 16.19022918 -23.16508603 17.83017207 -24.75 21 C-24.90660883 23.62380313 -25.0082908 26.22524852 -25.06640625 28.8515625 C-25.08718735 29.62559418 -25.10796844 30.39962585 -25.12937927 31.19711304 C-25.19483448 33.67298392 -25.25374087 36.14896202 -25.3125 38.625 C-25.35568907 40.30209448 -25.39930348 41.97917807 -25.44335938 43.65625 C-25.55051171 47.77072308 -25.65179045 51.88530414 -25.75 56 C-30.7 56 -35.65 56 -40.75 56 C-40.75 37.52 -40.75 19.04 -40.75 0 C-36.13 0 -31.51 0 -26.75 0 C-26.42 2.31 -26.09 4.62 -25.75 7 C-25.20730469 6.50628906 -24.66460938 6.01257813 -24.10546875 5.50390625 C-23.39003906 4.86324219 -22.67460938 4.22257813 -21.9375 3.5625 C-21.22980469 2.92441406 -20.52210938 2.28632812 -19.79296875 1.62890625 C-14.37810666 -2.68848857 -6.31499615 -1.68399897 0 0 Z " fill="#174780" transform="translate(701.75,535)"/>
<path d="M0 0 C4.14170243 4.26003679 7.1875 8.20805251 7.1875 14.25 C5.6051994 14.58820166 4.02160625 14.92035939 2.4375 15.25 C1.55578125 15.435625 0.6740625 15.62125 -0.234375 15.8125 C-2.8125 16.25 -2.8125 16.25 -6.8125 16.25 C-8.15581654 14.25669158 -9.48844012 12.25615134 -10.8125 10.25 C-14.9981553 7.61901667 -20.00934336 7.55135903 -24.8125 8.25 C-29.14993651 10.70159455 -31.19573353 13.56988654 -32.8125 18.25 C-33.46016379 23.5497854 -33.49050328 27.8157623 -31.1875 32.6875 C-27.51075497 36.65451438 -24.34677028 39.43315247 -18.8125 39.75 C-14.60605218 39.52436678 -12.02254931 38.00147083 -8.8125 35.25 C-7.65264165 33.18127989 -7.65264165 33.18127989 -6.8125 31.25 C-5.22882253 31.39204741 -3.64556682 31.53880153 -2.0625 31.6875 C-1.18078125 31.76871094 -0.2990625 31.84992187 0.609375 31.93359375 C2.88100452 32.21238465 4.98601823 32.63790577 7.1875 33.25 C6.19565482 39.65190977 3.20955854 45.03312661 -2.0703125 48.90625 C-10.38783371 53.62774719 -18.38046437 54.08562841 -27.8125 53.25 C-36.23406437 50.77241576 -43.01118172 45.02555007 -47.25 37.375 C-50.27720208 29.70170081 -50.11084893 20.10632436 -48 12.2109375 C-44.70135304 4.8118891 -38.49833766 -1.3481382 -31.125 -4.75 C-20.16432626 -8.09727162 -9.48911942 -5.90434097 0 0 Z " fill="#184981" transform="translate(834.8125,539.75)"/>
<path d="M0 0 C4.95 0 9.9 0 15 0 C15 4.95 15 9.9 15 15 C19.62 15 24.24 15 29 15 C29 19.29 29 23.58 29 28 C24.38 28 19.76 28 15 28 C15.14045344 32.43773095 15.28711784 36.87510406 15.4375 41.3125 C15.47681641 42.57513672 15.51613281 43.83777344 15.55664062 45.13867188 C15.59853516 46.34716797 15.64042969 47.55566406 15.68359375 48.80078125 C15.72025146 49.91622314 15.75690918 51.03166504 15.79467773 52.1809082 C15.88931209 55.07873571 15.88931209 55.07873571 17 58 C21.29 58 25.58 58 30 58 C30 62.62 30 67.24 30 72 C26.95736733 72.10845027 23.91863796 72.18752063 20.875 72.25 C20.0190625 72.28351563 19.163125 72.31703125 18.28125 72.3515625 C12.6426939 72.43830952 9.46318769 71.78715617 5 68 C0.47532937 62.98617579 -0.14711766 59.26648298 -0.09765625 52.70703125 C-0.0962413 52.00100266 -0.09482635 51.29497406 -0.09336853 50.56755066 C-0.08777764 48.31582374 -0.07522688 46.06419679 -0.0625 43.8125 C-0.05748382 42.28450665 -0.05292112 40.75651173 -0.04882812 39.22851562 C-0.0378112 35.48563865 -0.02055287 31.74283627 0 28 C-2.64 28 -5.28 28 -8 28 C-8 23.71 -8 19.42 -8 15 C-5.36 15 -2.72 15 0 15 C0 10.05 0 5.1 0 0 Z " fill="#174880" transform="translate(854,520)"/>
<path d="M0 0 C4.85203875 3.3528133 8.09098331 7.23106772 9.7109375 12.94140625 C10.74500628 19.7059395 9.77094965 25.37126763 5.7109375 30.94140625 C1.21174586 35.55537318 -2.14310887 37.11518123 -8.5390625 37.25390625 C-14.00914644 37.18763871 -17.27427038 36.95619837 -21.2890625 32.94140625 C-26.8178864 27.19083808 -26.84751253 21.24488091 -26.85546875 13.52734375 C-25.98816293 8.03640069 -23.63535885 4.97917635 -19.2890625 1.62890625 C-13.54103254 -1.6043606 -6.16235805 -2.8498277 0 0 Z " fill="#F0F1F2" transform="translate(671.2890625,445.05859375)"/>
<path d="M0 0 C5.61 0 11.22 0 17 0 C17 21.45 17 42.9 17 65 C11.39 65 5.78 65 0 65 C0 43.55 0 22.1 0 0 Z " fill="#1A4981" transform="translate(710,431)"/>
<path d="M0 0 C3.96317081 1.79449931 6.40962583 4.18109389 8.9375 7.6875 C10.76484869 13.38452827 10.80130506 18.64060177 8.875 24.3125 C6.57991968 27.60211513 4.67633145 30.31203459 1 32 C-3.12145426 32.69249367 -6.88149373 32.72305237 -11 32 C-14.0625 29.8125 -14.0625 29.8125 -16 27 C-16.5259375 26.23945312 -17.051875 25.47890625 -17.59375 24.6953125 C-20.04478709 19.99749141 -19.62351949 15.16330182 -19 10 C-15.27858528 1.98464521 -8.63953121 -1.72790624 0 0 Z " fill="#EEEFF1" transform="translate(564,547)"/>
<path d="M0 0 C3.37495058 0.02428022 5.14420406 0.59958588 7.75 2.75 C10.48324942 5.54991404 11.19379054 6.33035679 11.625 10.125 C11.23470973 14.18401885 9.81662622 16.20801684 7.3125 19.375 C3.5635077 21.24949615 -0.61470547 21.03355233 -4.6875 20.375 C-7.52814179 18.67563151 -8.03604524 17.45771556 -9.6875 14.375 C-10.41130155 11.28074837 -10.20953325 9.66380946 -9.6875 6.375 C-7.25 3.4375 -7.25 3.4375 -4.6875 1.375 C-3.6875 0.375 -3.6875 0.375 0 0 Z " fill="#194A81" transform="translate(717.6875,402.625)"/>
<path d="M0 0 C5.0410719 2.25979085 7.03725557 4.87505622 9 10 C9 10.99 9 11.98 9 13 C-1.23 13 -11.46 13 -22 13 C-20.95763751 6.74582506 -20.51143164 5.86694141 -16 2 C-11.11293819 -1.2580412 -5.71183789 -0.56205047 0 0 Z " fill="#ECEEF1" transform="translate(593,444)"/>
<path d="M0 0 C0.66 0 1.32 0 2 0 C2 30.03 2 60.06 2 91 C-3.94 91 -9.88 91 -16 91 C-16 71.53 -16 52.06 -16 32 C-15.67 32 -15.34 32 -15 32 C-15 50.81 -15 69.62 -15 89 C-10.05 89 -5.1 89 0 89 C0 59.63 0 30.26 0 0 Z " fill="#274C84" transform="translate(540,406)"/>
<path d="M0 0 C2.8727555 1.34251544 3.86266901 2.4790455 6 5 C6.66 6.98 7.32 8.96 8 11 C-0.91 11 -9.82 11 -19 11 C-16.54066265 3.62198795 -16.54066265 3.62198795 -12.97265625 0.921875 C-8.79324446 -1.03127586 -4.45787043 -0.82136097 0 0 Z " fill="#E3E7EC" transform="translate(756,547)"/>
<path d="M0 0 C2.42130331 3.63195496 2.21022785 5.38349348 2.125 9.6875 C2.10695313 10.86699219 2.08890625 12.04648437 2.0703125 13.26171875 C2.04710937 14.16535156 2.02390625 15.06898438 2 16 C-0.94391748 16.98130583 -2.69179645 17.09389457 -5.74682617 17.02172852 C-6.70759567 17.00163223 -7.66836517 16.98153595 -8.6582489 16.96083069 C-9.69270645 16.93379562 -10.727164 16.90676056 -11.79296875 16.87890625 C-13.38471672 16.84348976 -13.38471672 16.84348976 -15.00862122 16.80735779 C-18.4017167 16.73071549 -21.79458429 16.64669324 -25.1875 16.5625 C-27.48631693 16.5092799 -29.78514502 16.4565395 -32.08398438 16.40429688 C-37.7227976 16.27509954 -43.36144123 16.1398408 -49 16 C-49 15.67 -49 15.34 -49 15 C-32.83 15 -16.66 15 0 15 C0 10.05 0 5.1 0 0 Z " fill="#D4DDE7" transform="translate(619,453)"/>
<path d="M0 0 C0.33 0 0.66 0 1 0 C1 19.14 1 38.28 1 58 C0.67 58 0.34 58 0 58 C-0.33 40.84 -0.66 23.68 -1 6 C-1.99 6.495 -1.99 6.495 -3 7 C-1.125 1.125 -1.125 1.125 0 0 Z " fill="#E4E9F0" transform="translate(523,439)"/>
<path d="M0 0 C0.91644287 0.00523682 1.83288574 0.01047363 2.77709961 0.01586914 C3.76645508 0.0190918 4.75581055 0.02231445 5.77514648 0.02563477 C6.81606445 0.03401367 7.85698242 0.04239258 8.92944336 0.05102539 C10.49662109 0.05779297 10.49662109 0.05779297 12.09545898 0.06469727 C14.68600996 0.07652627 17.27644895 0.0930085 19.86694336 0.11352539 C19.86694336 0.44352539 19.86694336 0.77352539 19.86694336 1.11352539 C12.93694336 1.11352539 6.00694336 1.11352539 -1.13305664 1.11352539 C-1.79305664 3.09352539 -2.45305664 5.07352539 -3.13305664 7.11352539 C-3.67725491 8.34400626 -4.24888483 9.56311406 -4.85961914 10.76196289 C-5.16899414 11.37426758 -5.47836914 11.98657227 -5.79711914 12.61743164 C-6.11422852 13.23489258 -6.43133789 13.85235352 -6.75805664 14.48852539 C-7.08290039 15.12918945 -7.40774414 15.76985352 -7.74243164 16.42993164 C-8.53563071 17.9930004 -9.33382695 19.55353161 -10.13305664 21.11352539 C-10.91241915 18.83273461 -11.26728617 17.5366355 -10.52807617 15.20654297 C-10.19404785 14.56354248 -9.86001953 13.92054199 -9.51586914 13.25805664 C-9.1562207 12.55358398 -8.79657227 11.84911133 -8.42602539 11.12329102 C-8.0405957 10.39819336 -7.65516602 9.6730957 -7.25805664 8.92602539 C-6.88036133 8.18932617 -6.50266602 7.45262695 -6.11352539 6.69360352 C-2.72786508 0.14518224 -2.72786508 0.14518224 0 0 Z " fill="#D9E0E8" transform="translate(522.133056640625,404.886474609375)"/>
<path d="M0 0 C0 0.33 0 0.66 0 1 C-4.29 1 -8.58 1 -13 1 C-13 11.23 -13 21.46 -13 32 C-14.32 31.34 -15.64 30.68 -17 30 C-16.67 29.34 -16.34 28.68 -16 28 C-15.67 28 -15.34 28 -15 28 C-14.67 18.76 -14.34 9.52 -14 0 C-3 -1 -3 -1 0 0 Z " fill="#FBFBFB" transform="translate(692,404)"/>
<path d="M0 0 C0.61875 0.825 1.2375 1.65 1.875 2.5 C4.43342925 5.06573905 6.41329227 5.43937421 10 5.5625 C14.45861482 5.35620588 16.87588849 4.33238562 20 1 C19.63595523 3.63932462 19.24498227 4.77318495 17.26171875 6.609375 C13.3835281 8.99389291 9.40386518 8.64741798 5 8 C1.875 6.25 1.875 6.25 0 4 C0 2.68 0 1.36 0 0 Z " fill="#DEE6ED" transform="translate(708,417)"/>
<path d="M0 0 C5.94 0.33 11.88 0.66 18 1 C18 1.66 18 2.32 18 3 C15.37438891 3.08074203 12.75124324 3.1403623 10.125 3.1875 C9.00544922 3.22520508 9.00544922 3.22520508 7.86328125 3.26367188 C5.6953125 3.29296875 5.6953125 3.29296875 2 3 C1.34 2.01 0.68 1.02 0 0 Z " fill="#245389" transform="translate(741,590)"/>
<path d="M0 0 C5.94 0.33 11.88 0.66 18 1 C17.67 1.66 17.34 2.32 17 3 C14.54101345 3.08076963 12.08466258 3.14037143 9.625 3.1875 C8.57699219 3.22520508 8.57699219 3.22520508 7.5078125 3.26367188 C5.4765625 3.29296875 5.4765625 3.29296875 2 3 C1.34 2.01 0.68 1.02 0 0 Z " fill="#245489" transform="translate(549,590)"/>
<path d="M0 0 C0.33 0 0.66 0 1 0 C0.42978625 6.95660771 -1.01302694 13.31427305 -3 20 C-3.66 19.01 -4.32 18.02 -5 17 C-4.505 15.515 -4.505 15.515 -4 14 C-3.30605404 11.60602577 -2.61934338 9.20994931 -1.9375 6.8125 C-1.75123047 6.15830078 -1.56496094 5.50410156 -1.37304688 4.83007812 C-0.91476671 3.22022216 -0.45730349 1.61013368 0 0 Z " fill="#267CD5" transform="translate(285,492)"/>
<path d="M0 0 C0.66 0.33 1.32 0.66 2 1 C1.53722656 1.38929688 1.07445312 1.77859375 0.59765625 2.1796875 C-1.36430793 4.41507945 -1.83085849 6.2569653 -2.5625 9.125 C-3.25390625 11.8203125 -3.25390625 11.8203125 -4 14 C-4.99 14.495 -4.99 14.495 -6 15 C-6.45826062 9.2717423 -5.55825861 6.5001506 -2 2 C-1.34 1.34 -0.68 0.68 0 0 Z " fill="#E0E7ED" transform="translate(551,549)"/>
<path d="M0 0 C0.70125 0.13277344 1.4025 0.26554687 2.125 0.40234375 C7.7404558 1.44761202 13.32433509 2.3574719 19 3 C19 3.33 19 3.66 19 4 C12.29481414 4.19818283 6.34823202 4.30844801 0 2 C0 1.34 0 0.68 0 0 Z " fill="#376294" transform="translate(573,494)"/>
<path d="M0 0 C0.66 0 1.32 0 2 0 C2.5775 0.598125 3.155 1.19625 3.75 1.8125 C5.95457908 4.18221333 5.95457908 4.18221333 9.1875 5.5625 C12 7 12 7 13 10 C7.58889909 8.68021929 3.73558494 6.06714573 0 2 C0 1.34 0 0.68 0 0 Z " fill="#205187" transform="translate(793,582)"/>
<path d="M0 0 C0.33 0 0.66 0 1 0 C1 6.93 1 13.86 1 21 C0.67 21 0.34 21 0 21 C-0.33 16.05 -0.66 11.1 -1 6 C-1.99 6.495 -1.99 6.495 -3 7 C-1.125 1.125 -1.125 1.125 0 0 Z " fill="#D8E1EB" transform="translate(523,439)"/>
<path d="M0 0 C0.70125 0.2475 1.4025 0.495 2.125 0.75 C2.125 1.08 2.125 1.41 2.125 1.75 C1.238125 1.9975 0.35125 2.245 -0.5625 2.5 C-3.97927135 3.78934768 -6.1547748 5.34980129 -8.875 7.75 C-8.875 6.43 -8.875 5.11 -8.875 3.75 C-4.10232124 -0.35672359 -4.10232124 -0.35672359 0 0 Z " fill="#E6EBF0" transform="translate(657.875,445.25)"/>
<path d="M0 0 C0 0.66 0 1.32 0 2 C-1.32 2 -2.64 2 -4 2 C-4.2475 2.5775 -4.495 3.155 -4.75 3.75 C-6.16683317 6.3002997 -7.87627537 8.01785701 -10 10 C-9.84876423 7.35337395 -9.49998757 5.55721506 -7.703125 3.5546875 C-3.6 0 -3.6 0 0 0 Z " fill="#E6ECF0" transform="translate(748,547)"/>
<path d="M0 0 C0.99 0.33 1.98 0.66 3 1 C1.35 2.98 -0.3 4.96 -2 7 C-3.32 6.67 -4.64 6.34 -6 6 C-4.02 4.02 -2.04 2.04 0 0 Z " fill="#225087" transform="translate(462,521)"/>
<path d="M0 0 C0.66 0 1.32 0 2 0 C2.33 0.66 2.66 1.32 3 2 C4.32 1.34 5.64 0.68 7 0 C7.33 0.66 7.66 1.32 8 2 C7.195625 2.45375 6.39125 2.9075 5.5625 3.375 C2.91143428 4.74725665 2.91143428 4.74725665 2 7 C1.34 7 0.68 7 0 7 C0 4.69 0 2.38 0 0 Z " fill="#DFE5ED" transform="translate(613,534)"/>
<path d="M0 0 C0.8971875 0.309375 0.8971875 0.309375 1.8125 0.625 C-0.37876536 2.41047548 -2.23090363 3.64215957 -4.875 4.6875 C-7.34688605 5.39303846 -7.34688605 5.39303846 -8.1875 7.625 C-8.8475 7.295 -9.5075 6.965 -10.1875 6.625 C-3.20231959 -0.54896907 -3.20231959 -0.54896907 0 0 Z " fill="#DAE2EB" transform="translate(582.1875,444.375)"/>
<path d="M0 0 C0.88336837 2.4667645 1.1312406 3.63859372 0.22265625 6.140625 C-0.16019531 6.83671875 -0.54304688 7.5328125 -0.9375 8.25 C-1.31777344 8.95640625 -1.69804687 9.6628125 -2.08984375 10.390625 C-2.39019531 10.92171875 -2.69054687 11.4528125 -3 12 C-4.32 11.67 -5.64 11.34 -7 11 C-6.34 11 -5.68 11 -5 11 C-4.731875 10.29875 -4.46375 9.5975 -4.1875 8.875 C-2.9318551 5.8350176 -1.49764877 2.9272226 0 0 Z " fill="#E1E8EE" transform="translate(507,469)"/>
<path d="M0 0 C3.625 0.375 3.625 0.375 7 1 C7.33 2.65 7.66 4.3 8 6 C7.34 6 6.68 6 6 6 C6 5.01 6 4.02 6 3 C3.36 2.67 0.72 2.34 -2 2 C-1.34 1.34 -0.68 0.68 0 0 Z " fill="#E2E8ED" transform="translate(836,570)"/>
<path d="M0 0 C1.70884005 1.62339805 3.37446717 3.29319053 5 5 C5 5.66 5 6.32 5 7 C6.98 7 8.96 7 11 7 C11 7.33 11 7.66 11 8 C3.61195219 8.36334661 3.61195219 8.36334661 1 6.8125 C-0.30894168 4.44004321 -0.21620175 2.6664882 0 0 Z " fill="#D3E1EF" transform="translate(227,500)"/>
<path d="M0 0 C4.455 0.99 4.455 0.99 9 2 C9 2.66 9 3.32 9 4 C6.03 3.67 3.06 3.34 0 3 C-0.33 3.66 -0.66 4.32 -1 5 C-0.67 3.35 -0.34 1.7 0 0 Z " fill="#12427C" transform="translate(600,475)"/>
<path d="M0 0 C0.66 0.33 1.32 0.66 2 1 C0.35 4.3 -1.3 7.6 -3 11 C-4.19491898 6.22032407 -3.38305011 5.1245098 -1 1 C-0.67 0.67 -0.34 0.34 0 0 Z " fill="#E2E8EE" transform="translate(515,415)"/>
<path d="M0 0 C4.59037956 1.14759489 5.33669182 2.29039218 8 6 C7.34 6.66 6.68 7.32 6 8 C4.02 5.36 2.04 2.72 0 0 Z " fill="#DCE4EB" transform="translate(705,537)"/>
<path d="M0 0 C3.81684226 1.55500981 6.19195732 4.03595495 9 7 C4.71193127 6.52354792 2.73352513 5.34097516 0 2 C0 1.34 0 0.68 0 0 Z " fill="#E3E9EF" transform="translate(559,486)"/>
<path d="M0 0 C2.97 0.495 2.97 0.495 6 1 C6 1.33 6 1.66 6 2 C4.35 2 2.7 2 1 2 C0.731875 2.639375 0.46375 3.27875 0.1875 3.9375 C-1 6 -1 6 -4 7 C-3.67 6.01 -3.34 5.02 -3 4 C-2.34 4 -1.68 4 -1 4 C-0.67 2.68 -0.34 1.36 0 0 Z " fill="#DFE6EC" transform="translate(761,572)"/>
<path d="M0 0 C3.68754757 0.49831724 5.60490662 1.10067643 8 4 C7.67 4.99 7.34 5.98 7 7 C5.83040013 6.02433888 4.66438823 5.044375 3.5 4.0625 C2.8503125 3.51722656 2.200625 2.97195313 1.53125 2.41015625 C1.0259375 1.94480469 0.520625 1.47945312 0 1 C0 0.67 0 0.34 0 0 Z " fill="#DDE4EC" transform="translate(766,538)"/>
<path d="M0 0 C0.66 0 1.32 0 2 0 C2.125 3.375 2.125 3.375 2 7 C1.34 7.66 0.68 8.32 0 9 C-1.10844919 5.67465243 -0.84454356 3.37817425 0 0 Z " fill="#428CD9" transform="translate(294,496)"/>
<path d="M0 0 C-1.39332574 3.36720387 -2.9789286 4.9859524 -6 7 C-6 5.68 -6 4.36 -6 3 C-2.78571429 0 -2.78571429 0 0 0 Z " fill="#E3E9EF" transform="translate(681,536)"/>
<path d="M0 0 C2.375 0.3125 2.375 0.3125 5 1 C5.66 1.99 6.32 2.98 7 4 C3.79604584 4 1.90600261 3.25664978 -1 2 C-0.67 1.34 -0.34 0.68 0 0 Z " fill="#E1E8EE" transform="translate(627,548)"/>
<path d="M0 0 C3.68754757 0.49831724 5.60490662 1.10067643 8 4 C7.67 4.99 7.34 5.98 7 7 C4.66666667 4.66666667 2.33333333 2.33333333 0 0 Z " fill="#DFE7ED" transform="translate(830,537)"/>
<path d="M0 0 C1 3 1 3 -0.4375 6.1875 C-1.2109375 7.5796875 -1.2109375 7.5796875 -2 9 C-2.66 9 -3.32 9 -4 9 C-2.80100302 5.9168649 -1.52299523 2.93720508 0 0 Z " fill="#E5EAF0" transform="translate(512,460)"/>
</svg>
